<svg width="81" height="20" viewBox="0 0 81 20" fill="none" xmlns="http://www.w3.org/2000/svg">
<path d="M5.38773 14.3313V4.25977H8.40966V14.3313H5.38773ZM0.922363 10.5687V8.02238H12.875V10.5687H0.922363Z" fill="#3B50F5"/>
<path d="M22.3906 17.5844C21.1603 17.5844 20.1699 17.1769 19.4193 16.3619C18.6687 15.5403 18.2935 14.2103 18.2935 12.3716V4.88998C18.2935 4.12062 18.3786 3.43276 18.5488 2.82641C18.7268 2.22005 18.9976 1.70823 19.3613 1.29095C19.7327 0.867156 20.2124 0.547677 20.8005 0.332518C21.3885 0.110839 22.0965 0 22.9245 0C23.8221 0 24.5533 0.114099 25.1181 0.342298C25.683 0.563977 26.1163 0.889976 26.4181 1.32029C26.7276 1.74409 26.9404 2.26569 27.0564 2.88509C27.1725 3.50448 27.2305 4.20538 27.2305 4.98777V6.21027H24.3289V4.41076C24.3289 3.63488 24.2322 3.08394 24.0387 2.75795C23.853 2.43195 23.4971 2.26895 22.9709 2.26895C22.3906 2.26895 21.9882 2.46129 21.7638 2.84597C21.5394 3.22412 21.4272 3.89894 21.4272 4.87042V12.3325C21.4272 13.4148 21.5201 14.1907 21.7058 14.6601C21.8992 15.1231 22.2977 15.3545 22.9013 15.3545C23.4893 15.3545 23.9033 15.1165 24.1432 14.6406C24.3908 14.1581 24.5146 13.3562 24.5146 12.2347V9.91687H22.9477V8.00978H27.2305V17.4083H25.8377L25.3619 15.7164C25.1916 16.3097 24.828 16.7694 24.2708 17.0954C23.7215 17.4214 23.0947 17.5844 22.3906 17.5844Z" fill="black"/>
<path d="M32.9874 17.555C31.7958 17.555 30.9678 17.1899 30.5036 16.4597C30.047 15.7294 29.811 14.7612 29.7956 13.555V12.6161C29.7956 11.8337 29.9271 11.198 30.1902 10.709C30.461 10.22 30.844 9.82233 31.3392 9.51589C31.8345 9.20945 32.4264 8.94213 33.1151 8.71394C33.8037 8.48574 34.5697 8.24124 35.4132 7.98044V6.69927C35.4132 6.20375 35.3899 5.80929 35.3435 5.51589C35.2971 5.21597 35.1926 4.99755 35.0301 4.86064C34.8676 4.72372 34.6162 4.65526 34.2757 4.65526C33.943 4.65526 33.6876 4.72698 33.5097 4.87042C33.3394 5.00733 33.2234 5.22249 33.1615 5.51589C33.0996 5.80277 33.0686 6.17115 33.0686 6.62103V7.27628H30.0277V6.83619C30.0277 6.16463 30.0935 5.56479 30.225 5.03667C30.3643 4.50856 30.5964 4.06194 30.9214 3.69682C31.2464 3.32518 31.6874 3.04482 32.2446 2.85575C32.8094 2.66015 33.5174 2.56235 34.3686 2.56235C35.1191 2.56235 35.7614 2.65363 36.2953 2.83619C36.8292 3.01222 37.2625 3.27954 37.5952 3.63814C37.9279 3.99022 38.1716 4.43358 38.3264 4.96821C38.4812 5.50285 38.5585 6.12551 38.5585 6.83619V17.4083H35.4596V15.9511C35.3667 16.2315 35.2081 16.4955 34.9837 16.7433C34.7593 16.9845 34.4769 17.1801 34.1364 17.3301C33.8037 17.48 33.4207 17.555 32.9874 17.555ZM34.0552 15.5599C34.4421 15.5599 34.7516 15.4425 34.9837 15.2078C35.2158 14.9731 35.359 14.7351 35.4132 14.4939V9.44743C34.9489 9.62347 34.5581 9.78973 34.2409 9.94621C33.9236 10.0962 33.6683 10.2624 33.4749 10.445C33.2814 10.6275 33.1421 10.8427 33.057 11.0905C32.9719 11.3382 32.9293 11.6414 32.9293 12V13.643C32.9293 14.3146 33.0106 14.8036 33.1731 15.11C33.3433 15.4099 33.6373 15.5599 34.0552 15.5599Z" fill="black"/>
<path d="M41.4138 17.4083V0.0488998H44.4779V17.4083H41.4138Z" fill="black"/>
<path d="M47.5885 17.4083V0.0488998H50.6526V17.4083H47.5885Z" fill="black"/>
<path d="M57.8138 17.5844C56.9395 17.5844 56.2199 17.467 55.655 17.2323C55.0979 16.9976 54.6607 16.6585 54.3435 16.2152C54.034 15.7718 53.8173 15.2404 53.6935 14.621C53.5697 13.9951 53.5078 13.2975 53.5078 12.5281V7.06112C53.5078 6.37653 53.5891 5.75713 53.7515 5.20293C53.9218 4.64874 54.181 4.17604 54.5292 3.78484C54.8851 3.39364 55.3455 3.09372 55.9104 2.88509C56.4752 2.66993 57.1561 2.56235 57.9531 2.56235C58.7656 2.56235 59.4426 2.66667 59.9843 2.87531C60.5259 3.08394 60.9515 3.38712 61.261 3.78484C61.5782 4.18256 61.8026 4.66178 61.9342 5.22249C62.0735 5.77669 62.1431 6.40587 62.1431 7.11002V10.2494H56.6068V13.1345C56.6068 13.8451 56.6725 14.4156 56.8041 14.846C56.9356 15.2763 57.2954 15.4914 57.8835 15.4914C58.2781 15.4914 58.5567 15.3904 58.7192 15.1883C58.8894 14.9861 58.99 14.709 59.0209 14.357C59.0596 13.9984 59.079 13.5909 59.079 13.1345V11.8435H62.1199V12.6259C62.1199 13.4148 62.0618 14.1157 61.9458 14.7286C61.8375 15.3415 61.6285 15.8598 61.319 16.2836C61.0173 16.7074 60.5839 17.0302 60.0191 17.2518C59.4542 17.4735 58.7192 17.5844 57.8138 17.5844ZM56.5952 8.7335H59.079V6.85575C59.079 6.36675 59.0519 5.95599 58.9977 5.62347C58.9436 5.28443 58.8352 5.03015 58.6727 4.86064C58.5102 4.69112 58.2626 4.60636 57.9299 4.60636C57.5198 4.60636 57.218 4.70742 57.0246 4.90954C56.8389 5.11165 56.719 5.38875 56.6648 5.74083C56.6184 6.08639 56.5952 6.48085 56.5952 6.92421V8.7335Z" fill="black"/>
<path d="M64.743 17.4083V2.73839H67.8419V4.37164C68.0431 3.8044 68.3913 3.36104 68.8865 3.04156C69.3895 2.72209 70.0278 2.56235 70.8016 2.56235C70.8171 2.56235 70.8248 2.67319 70.8248 2.89487C70.8326 3.11654 70.8364 3.37082 70.8364 3.6577C70.8364 3.94458 70.8364 4.19886 70.8364 4.42054C70.8364 4.64222 70.8364 4.75306 70.8364 4.75306C70.4805 4.75306 70.0936 4.78892 69.6758 4.86064C69.2657 4.93236 68.8904 5.04319 68.5499 5.19315C68.2172 5.33659 67.9812 5.52893 67.8419 5.77017V17.4083H64.743Z" fill="black"/>
<path d="M72.3453 20V18.2103H73.355C73.6955 18.2103 73.9818 18.1842 74.2139 18.132C74.4461 18.0864 74.5776 17.9821 74.6086 17.8191C74.6627 17.7343 74.6821 17.5844 74.6666 17.3692C74.6511 17.1475 74.6279 16.9389 74.597 16.7433L71.8114 2.73839H74.7362L75.8505 10.2396L76.3147 14.1907H76.5701L76.9879 10.2396L78.0093 2.73839H80.9225L77.9048 18.0342C77.8197 18.4971 77.6998 18.872 77.545 19.1589C77.398 19.4523 77.1736 19.6642 76.8718 19.7946C76.5701 19.9315 76.1522 20 75.6183 20H72.3453Z" fill="black"/>
</svg>
