<svg width="17" height="17" viewBox="0 0 17 17" fill="none" xmlns="http://www.w3.org/2000/svg">
<path fill-rule="evenodd" clip-rule="evenodd" d="M4.6527 2.25923C3.04605 2.25923 1.74361 3.56168 1.74361 5.16832V12.4411C1.74361 14.0477 3.04605 15.3501 4.6527 15.3501H11.9254C13.5321 15.3501 14.8345 14.0477 14.8345 12.4411V5.16832C14.8345 3.56168 13.5321 2.25923 11.9254 2.25923H4.6527ZM0.289062 5.16832C0.289062 2.75835 2.24273 0.804688 4.6527 0.804688H11.9254C14.3354 0.804688 16.2891 2.75835 16.2891 5.16832V12.4411C16.2891 14.851 14.3354 16.8047 11.9254 16.8047H4.6527C2.24273 16.8047 0.289062 14.851 0.289062 12.4411V5.16832Z" fill="black"/>
<path fill-rule="evenodd" clip-rule="evenodd" d="M8.64057 6.615C8.18661 6.54769 7.72299 6.62523 7.31565 6.83659C6.9083 7.04795 6.57798 7.38238 6.37165 7.7923C6.16533 8.20222 6.09351 8.66676 6.16642 9.11985C6.23933 9.57293 6.45325 9.9915 6.77775 10.316C7.10225 10.6405 7.52082 10.8544 7.9739 10.9273C8.42699 11.0002 8.89153 10.9284 9.30145 10.7221C9.71137 10.5158 10.0458 10.1854 10.2572 9.7781C10.4685 9.37076 10.5461 8.90714 10.4787 8.45319C10.4101 7.99014 10.1943 7.56145 9.86331 7.23044C9.5323 6.89944 9.10361 6.68367 8.64057 6.615ZM6.64573 5.5455C7.32464 5.19323 8.09734 5.064 8.85392 5.17619C9.62567 5.29063 10.3402 5.65025 10.8918 6.20192C11.4435 6.7536 11.8031 7.46808 11.9176 8.23983C12.0298 8.99641 11.9005 9.76912 11.5482 10.448C11.196 11.1269 10.6386 11.6775 9.9554 12.0213C9.2722 12.3652 8.49797 12.4849 7.74282 12.3634C6.98767 12.2419 6.29007 11.8854 5.74923 11.3445C5.20839 10.8037 4.85186 10.1061 4.73035 9.35093C4.60883 8.59578 4.72853 7.82155 5.0724 7.13835C5.41628 6.45515 5.96682 5.89777 6.64573 5.5455Z" fill="black"/>
<path fill-rule="evenodd" clip-rule="evenodd" d="M11.5618 4.80469C11.5618 4.40303 11.8874 4.07741 12.2891 4.07741H12.2963C12.698 4.07741 13.0236 4.40303 13.0236 4.80469C13.0236 5.20635 12.698 5.53196 12.2963 5.53196H12.2891C11.8874 5.53196 11.5618 5.20635 11.5618 4.80469Z" fill="black"/>
</svg>
