<svg width="17" height="17" viewBox="0 0 17 17" fill="none" xmlns="http://www.w3.org/2000/svg">
<path fill-rule="evenodd" clip-rule="evenodd" d="M11.1982 6.62287C10.2337 6.62287 9.30881 7.00598 8.62686 7.68794C7.94491 8.36989 7.56179 9.29481 7.56179 10.2592V14.6229H9.01634V10.2592C9.01634 9.68058 9.24621 9.12562 9.65538 8.71645C10.0645 8.30728 10.6195 8.07741 11.1982 8.07741C11.7768 8.07741 12.3318 8.30728 12.7409 8.71645C13.1501 9.12562 13.38 9.68058 13.38 10.2592V14.6229H14.8345V10.2592C14.8345 9.29481 14.4514 8.36989 13.7695 7.68794C13.0875 7.00598 12.1626 6.62287 11.1982 6.62287ZM7.59834 6.65942C8.55307 5.70469 9.84796 5.16832 11.1982 5.16832C12.5483 5.16832 13.8432 5.70469 14.798 6.65942C15.7527 7.61415 16.2891 8.90904 16.2891 10.2592V15.3501C16.2891 15.7518 15.9635 16.0774 15.5618 16.0774H12.6527C12.251 16.0774 11.9254 15.7518 11.9254 15.3501V10.2592C11.9254 10.0663 11.8488 9.88136 11.7124 9.74497C11.576 9.60858 11.391 9.53196 11.1982 9.53196C11.0053 9.53196 10.8203 9.60858 10.6839 9.74497C10.5475 9.88136 10.4709 10.0663 10.4709 10.2592V15.3501C10.4709 15.7518 10.1453 16.0774 9.74361 16.0774H6.83452C6.43286 16.0774 6.10724 15.7518 6.10724 15.3501V10.2592C6.10724 8.90904 6.64361 7.61415 7.59834 6.65942Z" fill="black"/>
<path fill-rule="evenodd" clip-rule="evenodd" d="M0.289062 6.62287C0.289062 6.22121 0.614674 5.8956 1.01634 5.8956H3.92543C4.32709 5.8956 4.6527 6.22121 4.6527 6.62287V15.3501C4.6527 15.7518 4.32709 16.0774 3.92543 16.0774H1.01634C0.614674 16.0774 0.289062 15.7518 0.289062 15.3501V6.62287ZM1.74361 7.35014V14.6229H3.19815V7.35014H1.74361Z" fill="black"/>
<path fill-rule="evenodd" clip-rule="evenodd" d="M2.47088 2.25923C2.06922 2.25923 1.74361 2.58484 1.74361 2.98651C1.74361 3.38817 2.06922 3.71378 2.47088 3.71378C2.87254 3.71378 3.19815 3.38817 3.19815 2.98651C3.19815 2.58484 2.87254 2.25923 2.47088 2.25923ZM0.289062 2.98651C0.289062 1.78152 1.2659 0.804688 2.47088 0.804688C3.67587 0.804688 4.6527 1.78152 4.6527 2.98651C4.6527 4.19149 3.67587 5.16832 2.47088 5.16832C1.2659 5.16832 0.289062 4.19149 0.289062 2.98651Z" fill="black"/>
</svg>
